<svg xmlns="http://www.w3.org/2000/svg" xmlns:xlink="http://www.w3.org/1999/xlink" xml:space="preserve" style="shape-rendering:geometricPrecision;text-rendering:geometricPrecision;image-rendering:optimizeQuality;" viewBox="0 0 6.82666 8.533325000000001" x="0px" y="0px" fill-rule="evenodd" clip-rule="evenodd"><defs><style type="text/css">
   
    .fil1 {fill:none}
    .fil0 {fill:white;fill-rule:nonzero}
   
  </style></defs><g><path class="fil0" d="M3.4135 1.05129c-2.02356,2.2072 -1.95481,3.64009 -1.23122,4.31216 0.323161,0.30015 0.776677,0.450213 1.23096,0.450189 0.454287,-1.9685e-005 0.907819,-0.150138 1.23102,-0.450323 0.723677,-0.67215 0.792594,-2.10505 -1.23076,-4.31202zm-1.33997 4.42903c-0.787343,-0.731283 -0.883445,-2.26828 1.27746,-4.59693 0.00243701,-0.00304331 0.00512598,-0.00594882 0.00807087,-0.0086811 0.0323701,-0.0300669 0.0829961,-0.0281969 0.113063,0.00417323l-0.000133858 0.000122047c2.16491,2.33089 2.06895,3.86935 1.28102,4.60119 -0.353705,0.328516 -0.847134,0.492803 -1.33977,0.492827 -0.49263,2.75591e-005 -0.986039,-0.164205 -1.33971,-0.492693z"/><path class="fil0" d="M2.73591 3.62875c0,-0.0971378 0.0244409,-0.179988 0.0733268,-0.24824 0.0488858,-0.068248 0.119992,-0.102213 0.213004,-0.102213 0.0857087,0 0.156496,0.0304724 0.212366,0.0914213 0.056185,0.0612638 0.084437,0.151102 0.084437,0.269508 0,0.115228 -0.0285669,0.20411 -0.0853898,0.266331 -0.0565039,0.0622165 -0.126343,0.0933268 -0.209512,0.0933268 -0.0825315,0 -0.151098,-0.0304724 -0.206016,-0.0920591 -0.0549173,-0.0612638 -0.0822165,-0.153957 -0.0822165,-0.278075zm0.291091 -0.235224c-0.0415827,0 -0.076185,0.0180945 -0.103803,0.0539646 -0.0276181,0.0358701 -0.0412677,0.101898 -0.0412677,0.198083 0,0.0872953 0.0139685,0.148878 0.0415866,0.184752 0.0279331,0.0355512 0.0625354,0.0533268 0.103484,0.0533268 0.0419016,0 0.0768228,-0.0180945 0.104437,-0.0539646 0.0276181,-0.0358701 0.0415866,-0.101579 0.0415866,-0.19713 0,-0.0879291 -0.0139685,-0.149831 -0.0419016,-0.185382 -0.027937,-0.035874 -0.0628543,-0.0536496 -0.104122,-0.0536496zm0.000952756 1.3215l0.745665 -1.43673 0.135866 0 -0.743126 1.43673 -0.138406 0zm0.589484 -0.370134c0,-0.0977717 0.0244449,-0.180941 0.0733307,-0.24887 0.0492008,-0.0676142 0.120307,-0.101583 0.213953,-0.101583 0.0857087,0 0.1565,0.0304764 0.212685,0.0914213 0.0558701,0.0612677 0.084122,0.150787 0.084122,0.269189 0,0.115551 -0.0285709,0.204114 -0.0850748,0.26665 -0.0568228,0.0622205 -0.126976,0.0933268 -0.21078,0.0933268 -0.0825354,0 -0.151102,-0.0307913 -0.20602,-0.092374 -0.0549173,-0.0619016 -0.0822165,-0.154276 -0.0822165,-0.27776zm0.292047 -0.23522c-0.0422205,0 -0.0771378,0.0180945 -0.104756,0.0539646 -0.0276181,0.0358701 -0.0412677,0.101898 -0.0412677,0.198083 0,0.0866614 0.0139685,0.148244 0.0419016,0.184114 0.027937,0.0358701 0.0622205,0.0539646 0.103169,0.0539646 0.0428543,0 0.0780906,-0.0180945 0.10539,-0.0539646 0.0276181,-0.0358701 0.0415827,-0.101583 0.0415827,-0.19713 0,-0.0879331 -0.0139646,-0.149831 -0.0419016,-0.185705 -0.0279331,-0.0355512 -0.0625354,-0.0533268 -0.104118,-0.0533268z"/></g><rect class="fil1" width="6.82666" height="6.82666"/></svg>