<svg xmlns="http://www.w3.org/2000/svg" viewBox="0 0 100 125" x="0px" y="0px"><title>iconKit</title><g><path fill="#ffffff" d="M40,28.5A21.5,21.5,0,1,0,61.5,50,21.52,21.52,0,0,0,40,28.5Zm0,40A18.5,18.5,0,1,1,58.5,50,18.52,18.52,0,0,1,40,68.5Z"/><path fill="#ffffff" d="M80,48.5H70a1.5,1.5,0,0,0,0,3H80a1.5,1.5,0,0,0,0-3Z"/><path fill="#ffffff" d="M73.94,46.06h0a1.49,1.49,0,0,0,.49.33h0a1.46,1.46,0,0,0,1.09,0h0a1.49,1.49,0,0,0,.49-.33h0l5-5a1.5,1.5,0,0,0-2.12-2.12L76.5,41.38V30a1.5,1.5,0,0,0-3,0V41.38l-2.44-2.44a1.5,1.5,0,0,0-2.12,2.12Z"/><path fill="#ffffff" d="M76.06,53.94h0a1.49,1.49,0,0,0-.49-.33h0a1.46,1.46,0,0,0-1.09,0h0a1.49,1.49,0,0,0-.49.33h0l-5,5a1.5,1.5,0,1,0,2.12,2.12l2.44-2.44V70a1.5,1.5,0,0,0,3,0V58.62l2.44,2.44a1.5,1.5,0,1,0,2.12-2.12Z"/></g></svg>