<svg xmlns="http://www.w3.org/2000/svg" xmlns:xlink="http://www.w3.org/1999/xlink" version="1.1" x="0px" y="0px" viewBox="0 0 100 125" xml:space="preserve">
  <path fill="#ffffff" d="M29.46,62.603c-0.275-1.327-0.415-2.693-0.415-4.06c0-11.098,9.122-20.127,20.335-20.127   c11.211,0,20.332,9.029,20.332,20.127c0,1.436-0.152,2.863-0.452,4.241c-0.259,1.187-1.309,1.998-2.476,1.998   c-0.18,0-0.359-0.019-0.541-0.058c-1.369-0.298-2.238-1.649-1.94-3.018c0.224-1.025,0.336-2.089,0.336-3.163   c0-8.301-6.845-15.054-15.259-15.054c-8.416,0-15.262,6.753-15.262,15.054c0,1.021,0.104,2.042,0.309,3.031   c0.284,1.372-0.598,2.714-1.969,2.999C31.081,64.854,29.743,63.974,29.46,62.603z M36.976,35.382   c0.407,0.972,1.349,1.557,2.34,1.557c0.327,0,0.66-0.064,0.98-0.198c1.291-0.542,1.899-2.027,1.357-3.32L39.2,27.567   c-0.541-1.292-2.027-1.899-3.319-1.358s-1.9,2.027-1.358,3.32L36.976,35.382z M58.57,36.741c0.32,0.134,0.652,0.198,0.979,0.198   c0.991,0,1.934-0.585,2.34-1.557l2.453-5.853c0.541-1.292-0.068-2.779-1.359-3.32c-1.293-0.541-2.779,0.068-3.32,1.359   l-2.452,5.853C56.67,34.713,57.278,36.199,58.57,36.741z M73.859,51.08c0.319,0,0.646-0.061,0.96-0.19l5.922-2.424   c1.297-0.531,1.918-2.012,1.387-3.308s-2.011-1.917-3.309-1.387l-5.922,2.424c-1.295,0.53-1.916,2.012-1.387,3.309   C71.913,50.486,72.86,51.08,73.859,51.08z M18.124,48.466l5.92,2.424c0.314,0.129,0.641,0.19,0.961,0.19   c0.998,0,1.945-0.594,2.348-1.576c0.531-1.296-0.09-2.778-1.387-3.309l-5.92-2.423c-1.299-0.531-2.778,0.089-3.309,1.386   C16.206,46.455,16.827,47.936,18.124,48.466z M92.168,67.989H7.831c-1.4,0-2.535,1.6-2.535,3s1.135,3,2.535,3h84.337   c1.401,0,2.536-1.6,2.536-3S93.569,67.989,92.168,67.989z M49.554,64.594c0.875,0,1.5-0.709,1.5-1.585v-8.437l1.549,1.608   c0.607,0.631,1.611,0.651,2.241,0.043c0.632-0.607,0.65-1.611,0.043-2.241l-4.348-4.518c-0.299-0.311-0.747-0.486-1.179-0.486   c-0.443,0-0.867,0.186-1.168,0.513l-4.348,4.737c-0.592,0.646-0.549,1.648,0.097,2.24c0.646,0.592,1.648,0.549,2.239-0.096   l1.873-2.041v8.676C48.054,63.884,48.677,64.594,49.554,64.594z"/>
</svg>
