<svg xmlns="http://www.w3.org/2000/svg" xmlns:xlink="http://www.w3.org/1999/xlink" version="1.1" x="0px" y="0px" viewBox="0 0 100 125" enable-background="new 0 0 100 100" xml:space="preserve"><g><path fill="#ffffff" d="M29.459,62.603c-0.275-1.327-0.415-2.693-0.415-4.06c0-11.098,9.123-20.127,20.335-20.127   c11.21,0,20.332,9.029,20.332,20.127c0,1.436-0.152,2.863-0.452,4.241c-0.258,1.187-1.309,1.998-2.476,1.998   c-0.179,0-0.359-0.019-0.541-0.058c-1.369-0.298-2.238-1.649-1.94-3.018c0.223-1.025,0.336-2.089,0.336-3.163   c0-8.301-6.845-15.054-15.259-15.054c-8.416,0-15.262,6.753-15.262,15.054c0,1.021,0.104,2.042,0.309,3.031   c0.284,1.372-0.598,2.714-1.969,2.999C31.082,64.854,29.744,63.974,29.459,62.603z M36.976,35.382   c0.407,0.972,1.349,1.557,2.34,1.557c0.327,0,0.659-0.064,0.979-0.198c1.292-0.542,1.9-2.027,1.358-3.32l-2.453-5.853   c-0.542-1.292-2.027-1.899-3.32-1.358c-1.292,0.541-1.9,2.027-1.359,3.32L36.976,35.382z M58.57,36.741   c0.32,0.134,0.652,0.198,0.979,0.198c0.991,0,1.933-0.585,2.34-1.557l2.452-5.853c0.542-1.292-0.067-2.779-1.359-3.32   c-1.292-0.541-2.778,0.068-3.32,1.359l-2.452,5.853C56.67,34.713,57.279,36.199,58.57,36.741z M73.859,51.08   c0.32,0,0.646-0.061,0.96-0.19l5.922-2.424c1.296-0.531,1.917-2.012,1.387-3.308c-0.531-1.296-2.011-1.917-3.309-1.387   l-5.922,2.424c-1.296,0.53-1.917,2.012-1.387,3.309C71.914,50.486,72.86,51.08,73.859,51.08z M18.124,48.466l5.921,2.424   c0.314,0.129,0.64,0.19,0.96,0.19c0.999,0,1.946-0.594,2.348-1.576c0.531-1.296-0.09-2.778-1.386-3.309l-5.92-2.423   c-1.299-0.531-2.778,0.089-3.309,1.386C16.207,46.455,16.827,47.936,18.124,48.466z M92.168,67.989H7.832   c-1.401,0-2.536,1.6-2.536,3s1.135,3,2.536,3h84.336c1.401,0,2.537-1.6,2.537-3S93.569,67.989,92.168,67.989z M49.205,48.979   c-0.876,0-1.5,0.709-1.5,1.585v8.438l-1.549-1.609c-0.607-0.631-1.611-0.651-2.241-0.043c-0.631,0.607-0.65,1.611-0.043,2.241   l4.348,4.518c0.299,0.311,0.747,0.486,1.178,0.486c0.444,0,0.867-0.186,1.168-0.513l4.348-4.737   c0.592-0.646,0.549-1.648-0.096-2.24c-0.645-0.592-1.648-0.549-2.24,0.096l-1.872,2.04v-8.675   C50.705,49.688,50.081,48.979,49.205,48.979z"/></g></svg>