<svg xmlns="http://www.w3.org/2000/svg" xmlns:xlink="http://www.w3.org/1999/xlink" xml:space="preserve" version="1.1" style="shape-rendering:geometricPrecision;text-rendering:geometricPrecision;image-rendering:optimizeQuality;" viewBox="0 0 100000 125000" x="0px" y="0px" fill-rule="evenodd" clip-rule="evenodd"><defs><style type="text/css">
   
    .fil0 {fill:white;fill-rule:nonzero}
   
  </style></defs><g><path class="fil0" d="M49117 75625c-297,-807 118,-1702 926,-1998 807,-297 1703,118 1999,926 565,1527 1577,2800 2857,3692 1279,891 2827,1399 4460,1399 2154,0 4104,-873 5517,-2286 1412,-1411 2284,-3361 2284,-5516 0,-2154 -872,-4104 -2284,-5517 -1411,-1411 -3361,-2284 -5516,-2284l0 -6 -43682 0c-859,0 -1554,-696 -1554,-1554 0,-859 695,-1555 1554,-1555l43682 0 0 -5c3016,0 5746,1222 7722,3199 1976,1976 3199,4707 3199,7722 0,3016 -1223,5746 -3200,7722 -1976,1978 -4706,3200 -7722,3200 -2283,0 -4447,-712 -6239,-1959 -1791,-1248 -3210,-3034 -4003,-5180zm-9556 -50178c-296,808 -1191,1223 -1999,926 -808,-296 -1223,-1191 -926,-1998 793,-2146 2212,-3932 4004,-5180 1791,-1247 3955,-1959 6238,-1959 3016,0 5746,1222 7724,3200 1976,1976 3198,4706 3198,7722 0,3015 -1222,5746 -3198,7722 -1976,1977 -4707,3199 -7722,3199l-37442 0c-862,0 -1560,-698 -1560,-1560 0,-861 698,-1560 1560,-1560l37442 0c2154,0 4104,-873 5515,-2284 1412,-1413 2286,-3363 2286,-5517 0,-2155 -874,-4105 -2286,-5516 -1412,-1413 -3362,-2286 -5517,-2286 -1633,0 -3180,508 -4460,1399 -1280,892 -2292,2165 -2857,3692zm34322 12481c-296,808 -1191,1222 -1999,926 -808,-297 -1223,-1192 -926,-1999 793,-2146 2212,-3932 4004,-5179 1791,-1247 3955,-1959 6238,-1959 3016,0 5746,1222 7724,3199 1976,1976 3198,4707 3198,7723 0,3015 -1222,5746 -3198,7722 -1976,1977 -4707,3199 -7723,3199l-68643 0c-861,0 -1561,-699 -1561,-1560 0,-861 700,-1560 1561,-1560l68643 0c2155,0 4105,-873 5516,-2286 1412,-1411 2286,-3361 2286,-5515 0,-2155 -874,-4105 -2286,-5517 -1412,-1412 -3362,-2285 -5517,-2285 -1633,0 -3180,508 -4460,1399 -1280,891 -2292,2165 -2857,3692z"/></g></svg>